<svg xmlns="http://www.w3.org/2000/svg" xmlns:xlink="http://www.w3.org/1999/xlink" width="144.462" height="142.81" viewBox="0 0 144.462 142.81">
  <defs>
    <style>
      .cls-1 {
        fill: url(#linear-gradient);
      }

      .cls-2 {
        filter: url(#Path_6247);
      }
    </style>
    <linearGradient id="linear-gradient" x1="0.5" y1="-0.549" x2="0.5" y2="1" gradientUnits="objectBoundingBox">
      <stop offset="0" stop-color="#ffaf60"/>
      <stop offset="0.278" stop-color="#f39171"/>
      <stop offset="1" stop-color="#de5b8f"/>
    </linearGradient>
    <filter id="Path_6247" x="0" y="0" width="144.462" height="142.81" filterUnits="userSpaceOnUse">
      <feOffset dx="5" dy="3" input="SourceAlpha"/>
      <feGaussianBlur stdDeviation="12" result="blur"/>
      <feFlood flood-opacity="0.09"/>
      <feComposite operator="in" in2="blur"/>
      <feComposite in="SourceGraphic"/>
    </filter>
  </defs>
  <g id="cash" transform="translate(1.001 0.264)">
    <g id="Group_1574" data-name="Group 1574" transform="translate(29.999 32.736)">
      <g class="cls-2" transform="matrix(1, 0, 0, 1, -31, -33)">
        <path id="Path_6247-2" data-name="Path 6247" class="cls-1" d="M38.453,37.726a4.227,4.227,0,1,0-4.227,4.227A4.232,4.232,0,0,0,38.453,37.726Zm-6.038,0a1.812,1.812,0,1,1,1.812,1.812A1.813,1.813,0,0,1,32.414,37.726ZM98.234,50.407a4.227,4.227,0,1,0-4.227-4.227A4.232,4.232,0,0,0,98.234,50.407Zm0-6.038a1.812,1.812,0,1,1-1.812,1.812A1.813,1.813,0,0,1,98.234,44.369Zm-61.592,8.9a1.367,1.367,0,1,1-1.367,1.367A1.367,1.367,0,0,1,36.641,53.267ZM92.036,34.1A1.367,1.367,0,1,1,93.4,35.471,1.367,1.367,0,0,1,92.036,34.1Zm-18.009,3.78,1.365-1.365-1.365-1.365a1.208,1.208,0,0,1,1.708-1.708L77.1,34.811l1.365-1.365a1.208,1.208,0,0,1,1.708,1.708l-1.365,1.365,1.365,1.365a1.208,1.208,0,1,1-1.708,1.708L77.1,38.226l-1.365,1.365a1.208,1.208,0,0,1-1.708-1.708Zm27.766,22.058a1.208,1.208,0,0,0,.022-2.149L78.869,45.716a1.209,1.209,0,0,0-1.091-.018L63.542,52.623l-1.562-.859a1.2,1.2,0,0,0-1.122-.022L48.782,57.781a1.2,1.2,0,0,0-.118,2.081l-15.57,7.574a1.208,1.208,0,0,0-.012,2.167L57.236,81.68a1.209,1.209,0,0,0,1.08,0L72.268,74.7V79.25L57.776,86.5,34.162,74.689a1.208,1.208,0,1,0-1.08,2.161L57.236,88.926a1.209,1.209,0,0,0,1.08,0L72.268,81.95V86.5L57.776,93.741,34.162,81.935a1.208,1.208,0,0,0-1.08,2.161L57.236,96.172a1.209,1.209,0,0,0,1.08,0L72.268,89.2v4.544l-14.492,7.247L34.162,89.181a1.208,1.208,0,1,0-1.08,2.161l24.154,12.077a1.209,1.209,0,0,0,1.08,0l13.969-6.985a1.2,1.2,0,0,0,1.731.947l12.077-6.038a1.208,1.208,0,0,0,.668-1.08V89.2l15.032-7.516a1.208,1.208,0,1,0-1.08-2.161L86.761,86.5V81.95l15.032-7.516a1.208,1.208,0,0,0-1.08-2.161L86.761,79.249V74.7l15.032-7.516a1.208,1.208,0,0,0-1.08-2.161L86.761,72V67.457Zm-23.507-11.8,20.322,10.7L86.151,65.062c-.006,0-.011-.009-.017-.012l-20-11ZM57.776,79.249,36.352,68.538l14.66-7.132a1.162,1.162,0,0,0,.181-.138l20.26,11.143ZM84.345,89.515l-9.662,4.831v-22.2a1.207,1.207,0,0,0-.626-1.058L51.92,58.912l9.452-4.726L84.346,66.821V89.515Zm7.786-29.573-6.04,3.02a1.208,1.208,0,0,1-1.08-2.161l3.972-1.986-10.7-5.838-4.266,2.133a1.208,1.208,0,1,1-1.08-2.161l4.831-2.415a1.212,1.212,0,0,1,1.118.02L92.169,57.8a1.208,1.208,0,0,1-.038,2.141ZM63.147,73.831l-4.831,2.415a1.208,1.208,0,0,1-1.118-.02L43.913,68.98a1.208,1.208,0,0,1,.038-2.141l6.04-3.02a1.208,1.208,0,0,1,1.08,2.161L47.1,67.966,57.8,73.8l4.266-2.133a1.208,1.208,0,0,1,1.08,2.161ZM81.571,58.257c0,.536-.65.97-1.452.97s-1.452-.434-1.452-.97.65-.97,1.452-.97S81.571,57.721,81.571,58.257ZM54.512,69.127c0-.536.65-.97,1.452-.97s1.452.434,1.452.97-.65.97-1.452.97S54.512,69.662,54.512,69.127Zm-4.971-26.3-.676,3.936a1.207,1.207,0,0,0,1.751,1.273l3.536-1.857,3.536,1.857a1.207,1.207,0,0,0,1.751-1.273l-.676-3.936,2.86-2.788a1.207,1.207,0,0,0-.67-2.059L57,37.406l-1.768-3.581a1.256,1.256,0,0,0-2.165,0L51.3,37.406l-3.951.574a1.207,1.207,0,0,0-.67,2.059Z" transform="translate(1 0.26)"/>
      </g>
    </g>
  </g>
</svg>
