<svg xmlns="http://www.w3.org/2000/svg" width="111.301" height="110.405" viewBox="0 0 111.301 110.405">
    <defs>
        <linearGradient id="uwm27xuspb" x1=".5" y1="-.549" x2=".5" y2="1" gradientUnits="objectBoundingBox">
            <stop offset="0" stop-color="#ffaf60"/>
            <stop offset=".278" stop-color="#f39171"/>
            <stop offset="1" stop-color="#de5b8f"/>
        </linearGradient>
        <filter id="jmhgh4jtaa" x="0" y="0" width="111.301" height="110.405" filterUnits="userSpaceOnUse">
            <feOffset dx="5" dy="3"/>
            <feGaussianBlur stdDeviation="12" result="blur"/>
            <feFlood flood-opacity=".09"/>
            <feComposite operator="in" in2="blur"/>
            <feComposite in="SourceGraphic"/>
        </filter>
    </defs>
    <g style="filter:url(#jmhgh4jtaa)" data-name="Group 1574">
        <path data-name="Path 6247" d="M34.584 35.443a2.293 2.293 0 1 0-2.293 2.293 2.3 2.3 0 0 0 2.293-2.293zm-3.275 0a.983.983 0 1 1 .983.983.984.984 0 0 1-.983-.983zm35.7 6.878a2.293 2.293 0 1 0-2.293-2.293 2.3 2.3 0 0 0 2.291 2.292zm0-3.275a.983.983 0 1 1-.983.983.984.984 0 0 1 .981-.984zM33.6 43.871a.742.742 0 1 1-.742.742.742.742 0 0 1 .742-.742zm30.045-10.393a.742.742 0 1 1 .742.742.742.742 0 0 1-.742-.742zm-9.767 2.05.74-.74-.74-.74a.655.655 0 0 1 .926-.926l.74.74.74-.74a.655.655 0 0 1 .926.926l-.74.74.74.74a.655.655 0 1 1-.926.926l-.74-.74-.74.74a.655.655 0 0 1-.926-.926zm15.059 11.963a.655.655 0 0 0 .012-1.165L56.5 39.776a.656.656 0 0 0-.592-.01l-7.721 3.756-.847-.466a.652.652 0 0 0-.608-.012l-6.55 3.275a.65.65 0 0 0-.064 1.129l-8.445 4.108a.655.655 0 0 0-.006 1.175l13.1 6.55a.656.656 0 0 0 .586 0l7.571-3.781v2.465l-7.86 3.93-12.807-6.4a.655.655 0 1 0-.586 1.172l13.1 6.55a.656.656 0 0 0 .586 0l7.567-3.783v2.465l-7.86 3.93-12.807-6.4a.655.655 0 0 0-.586 1.172l13.1 6.55a.656.656 0 0 0 .586 0l7.567-3.783v2.465l-7.86 3.93-12.807-6.4a.655.655 0 0 0-.586 1.172l13.1 6.55a.656.656 0 0 0 .586 0l7.576-3.789a.65.65 0 0 0 .939.514l6.55-3.275a.655.655 0 0 0 .362-.586v-.578l8.153-4.077a.655.655 0 1 0-.586-1.172l-7.567 3.783v-2.477l8.153-4.077a.655.655 0 0 0-.586-1.172l-7.567 3.783V55.5l8.153-4.077a.655.655 0 1 0-.586-1.172l-7.567 3.783v-2.467zm-12.75-6.4 11.022 5.8-6.756 3.378-.009-.007L49.6 44.3zM45.064 57.963l-11.619-5.809 7.955-3.868a.63.63 0 0 0 .1-.075l10.988 6.044zm14.41 5.568-5.24 2.62V54.11a.654.654 0 0 0-.34-.574l-12.006-6.6 5.126-2.563 12.46 6.853v12.305zm4.226-16.04-3.276 1.638a.655.655 0 0 1-.586-1.172l2.152-1.077-5.8-3.166-2.314 1.157a.655.655 0 1 1-.586-1.172l2.62-1.31a.657.657 0 0 1 .606.011l7.205 3.93a.655.655 0 0 1-.02 1.161zm-15.72 7.533-2.62 1.31a.655.655 0 0 1-.606-.011l-7.205-3.93a.655.655 0 0 1 .02-1.161l3.276-1.638a.655.655 0 0 1 .586 1.172l-2.154 1.077 5.8 3.166 2.314-1.157a.655.655 0 0 1 .586 1.172zm9.992-8.447c0 .291-.353.526-.788.526s-.788-.236-.788-.526.353-.526.788-.526.785.236.785.527zm-14.675 5.9c0-.291.353-.526.788-.526s.788.235.788.526-.353.526-.788.526-.791-.239-.791-.53zM40.6 38.209l-.366 2.135a.655.655 0 0 0 .95.69l1.916-1.008 1.918 1.007a.655.655 0 0 0 .95-.69l-.368-2.134 1.552-1.509a.655.655 0 0 0-.363-1.117l-2.143-.311-.959-1.942a.681.681 0 0 0-1.174 0l-.959 1.942-2.143.311a.655.655 0 0 0-.363 1.117z" transform="translate(1 .26)" style="fill:url(#uwm27xuspb)"/>
    </g>
</svg>
