<svg xmlns="http://www.w3.org/2000/svg" width="20" height="19.831" viewBox="0 0 20 19.831">
  <defs>
    <style>
      .cls-1 {
        fill: #767676;
      }
    </style>
  </defs>
  <g id="_46" data-name="46" transform="translate(-2 -2.169)">
    <path id="Path_6287" data-name="Path 6287" class="cls-1" d="M13.89,14.32h-.11L10.89,14a1,1,0,0,1-.88-.88l-.33-2.89A1,1,0,0,1,10,9.41l7-6.95a1,1,0,0,1,1.41,0l3.21,3.21a1,1,0,0,1,0,1.41l-6.95,7A1,1,0,0,1,13.89,14.32Zm-2-2.23,1.61.18,5.9-5.9L17.63,4.58l-5.9,5.9Z"/>
    <path id="Path_6288" data-name="Path 6288" class="cls-1" d="M19,22H12a1,1,0,0,1,0-2h7a1,1,0,0,0,0-2H5a3,3,0,0,1,0-6H7a1,1,0,0,1,0,2H5a1,1,0,0,0,0,2H19a3,3,0,0,1,0,6Z"/>
  </g>
</svg>
