<svg xmlns="http://www.w3.org/2000/svg" width="19.045" height="24.835" viewBox="0 0 19.045 24.835">
    <path data-name="Path 6283" d="M24.2 12.193 23.8 24.3a3.988 3.988 0 0 1-4 3.857h-7.6a3.988 3.988 0 0 1-4-3.853l-.4-12.111a1 1 0 0 1 2-.066l.4 12.11a2 2 0 0 0 2 1.923h7.6a2 2 0 0 0 2-1.927l.4-12.106a1 1 0 0 1 2 .066zm1.323-4.029a1 1 0 0 1-1 1H7.478a1 1 0 0 1 0-2h3.1a1.276 1.276 0 0 0 1.273-1.148 2.991 2.991 0 0 1 2.984-2.694h2.33a2.991 2.991 0 0 1 2.984 2.694 1.276 1.276 0 0 0 1.273 1.148h3.1a1 1 0 0 1 1 1zm-11.936-1h4.828a3.3 3.3 0 0 1-.255-.944 1 1 0 0 0-.994-.9h-2.33a1 1 0 0 0-.994.9 3.3 3.3 0 0 1-.256.944zm1.007 15.151V13.8a1 1 0 0 0-2 0v8.519a1 1 0 0 0 2 0zm4.814 0V13.8a1 1 0 0 0-2 0v8.519a1 1 0 0 0 2 0z" transform="translate(-6.478 -3.322)" style="fill:#fb6f7e"/>
</svg>
