<svg id="Group_1637" data-name="Group 1637" xmlns="http://www.w3.org/2000/svg" width="109.946" height="85.666" viewBox="0 0 109.946 85.666">
  <defs>
    <style>
      .cls-1 {
        fill: silver;
      }
    </style>
  </defs>
  <path id="Path_6285" data-name="Path 6285" class="cls-1" d="M103.616,17.066H80.668l-3.221,1.75,3.217-1.75h0l-4.857-8.93A7.318,7.318,0,0,0,69.369,4.3H42.577a7.321,7.321,0,0,0-6.442,3.829l-4.853,8.933H8.33A7.339,7.339,0,0,0,1,24.4V82.64a7.339,7.339,0,0,0,7.33,7.33h95.286a7.339,7.339,0,0,0,7.33-7.33V24.4A7.339,7.339,0,0,0,103.616,17.066Zm0,65.574H8.33V24.4H31.282a7.328,7.328,0,0,0,6.439-3.829l4.857-8.933H69.369l4.857,8.933h0A7.319,7.319,0,0,0,80.664,24.4h22.952Z" transform="translate(-1 -4.304)"/>
  <path id="Path_6286" data-name="Path 6286" class="cls-1" d="M34.131,10.929A24.935,24.935,0,1,0,59.066,35.863,24.961,24.961,0,0,0,34.131,10.929Zm0,42.54a17.6,17.6,0,1,1,17.6-17.6A17.626,17.626,0,0,1,34.131,53.468Z" transform="translate(20.842 13.351)"/>
</svg>
