<svg xmlns="http://www.w3.org/2000/svg" width="11.994" height="13.999" viewBox="0 0 11.994 13.999">
  <defs>
    <style>
      .cls-1 {
        fill: #767676;
      }
    </style>
  </defs>
  <g id="layer1" transform="translate(0 0)">
    <g id="g6963" transform="translate(0 0)">
      <path id="path7133" class="cls-1" d="M8,1A5.979,5.979,0,0,0,3.662,11.111a.5.5,0,0,0,.094.119l3.461,3.447a1.114,1.114,0,0,0,1.566,0l3.449-3.437.012-.01,0,0a.5.5,0,0,0,.051-.059l.012-.016A5.99,5.99,0,0,0,8,1ZM8,2a4.989,4.989,0,0,1,3.537,8.517q-.018.018-.033.037L8.08,13.969a.1.1,0,0,1-.154,0L4.553,10.611l0,0a.5.5,0,0,0-.084-.086A4.99,4.99,0,0,1,8,2Zm.016,2.012a3,3,0,1,0,3.012,3A3.009,3.009,0,0,0,8.014,4.012Zm0,1a2.008,2.008,0,1,1-2,2.008A2,2,0,0,1,8.014,5.008Z" transform="translate(-2.004 -1)"/>
    </g>
  </g>
</svg>
