<svg xmlns="http://www.w3.org/2000/svg" width="27.01" height="23.732" viewBox="0 0 27.01 23.732">
  <defs>
    <style>
      .cls-1 {
        fill: #fff;
      }
    </style>
  </defs>
  <path id="heart" class="cls-1" d="M19.687,1.917A7.2,7.2,0,0,0,13.5,5.629,7.2,7.2,0,0,0,7.313,1.917,7.65,7.65,0,0,0,0,9.848c0,5.115,5.384,10.7,9.9,14.489a5.6,5.6,0,0,0,7.2,0C21.615,20.549,27,14.963,27,9.848a7.65,7.65,0,0,0-7.312-7.931Zm-4.033,20.7a3.344,3.344,0,0,1-4.309,0c-5.78-4.85-9.1-9.5-9.1-12.768A5.4,5.4,0,0,1,7.313,4.167a5.4,5.4,0,0,1,5.062,5.681,1.125,1.125,0,1,0,2.25,0,5.4,5.4,0,0,1,5.062-5.681,5.4,5.4,0,0,1,5.062,5.681c0,3.266-3.315,7.919-9.1,12.764Z" transform="translate(0.005 -1.917)"/>
</svg>
