<svg xmlns="http://www.w3.org/2000/svg" xmlns:xlink="http://www.w3.org/1999/xlink" width="133.864" height="133.853" viewBox="0 0 133.864 133.853">
  <defs>
    <style>
      .cls-1 {
        fill: url(#linear-gradient);
      }

      .cls-2 {
        filter: url(#Path_6260);
      }
    </style>
    <linearGradient id="linear-gradient" x1="0.5" y1="-0.549" x2="0.5" y2="1" gradientUnits="objectBoundingBox">
      <stop offset="0" stop-color="#ffaf60"/>
      <stop offset="0.278" stop-color="#f39171"/>
      <stop offset="1" stop-color="#de5b8f"/>
    </linearGradient>
    <filter id="Path_6260" x="0" y="0" width="133.864" height="133.853" filterUnits="userSpaceOnUse">
      <feOffset dx="5" dy="3" input="SourceAlpha"/>
      <feGaussianBlur stdDeviation="12" result="blur"/>
      <feFlood flood-opacity="0.09"/>
      <feComposite operator="in" in2="blur"/>
      <feComposite in="SourceGraphic"/>
    </filter>
  </defs>
  <g id="money_return" data-name="money return" transform="translate(25.627 27.716)">
    <g class="cls-2" transform="matrix(1, 0, 0, 1, -25.63, -27.72)">
      <path id="Path_6260-2" data-name="Path 6260" class="cls-1" d="M51.934,37.269V31.962H20.685V44.821A1.717,1.717,0,0,0,22.4,46.535H50.219a1.717,1.717,0,0,0,1.715-1.715V42.077a.923.923,0,0,1,1.847,0v2.744a3.566,3.566,0,0,1-3.562,3.562H22.4a3.566,3.566,0,0,1-3.562-3.562V31.054a.075.075,0,0,1,0-.031V28.438A3.566,3.566,0,0,1,22.4,24.876h1.82a.923.923,0,1,1,0,1.847H22.4a1.717,1.717,0,0,0-1.715,1.715v1.679H51.934V28.436a1.717,1.717,0,0,0-1.715-1.715H36.462a.923.923,0,0,1,0-1.847H50.219a3.566,3.566,0,0,1,3.562,3.562v8.833a.923.923,0,1,1-1.847,0ZM31.655,26.721a.923.923,0,1,0,0-1.847H29.033a.923.923,0,1,0,0,1.847Zm16.563,7.329a.923.923,0,0,1,.923.923v8.2a.923.923,0,0,1-.923.923H37.157a.924.924,0,0,1-.923-.923v-8.2a.924.924,0,0,1,.923-.923ZM47.294,35.9H38.08v6.355h9.214ZM31.74,37.683H24.4a.923.923,0,0,0,0,1.847H31.74a.923.923,0,1,0,0-1.847Zm0,4.245H24.4a.923.923,0,0,0,0,1.847H31.74a.923.923,0,1,0,0-1.847Zm35.5-5.719A30.925,30.925,0,0,1,19.793,62.355l-1.3,1.3a1.914,1.914,0,0,1-3.2-.859L12.7,53.152a1.914,1.914,0,0,1,2.346-2.346l9.642,2.586a1.915,1.915,0,0,1,.859,3.2l-.946.946A24.346,24.346,0,0,0,59.087,27.627a3.343,3.343,0,0,1,1.559-4.195A3.3,3.3,0,0,1,65.22,25.2,30.812,30.812,0,0,1,67.238,36.209Zm-1.847,0a28.976,28.976,0,0,0-1.9-10.352,1.452,1.452,0,0,0-2.015-.776,1.521,1.521,0,0,0-.662,1.895,26.186,26.186,0,0,1-38.2,31.549.923.923,0,0,1-.17-1.439l1.794-1.794a.061.061,0,0,0,.018-.066.06.06,0,0,0-.049-.049l-9.644-2.583a.06.06,0,0,0-.066.017.059.059,0,0,0-.017.066l2.586,9.643a.068.068,0,0,0,.115.031l1.83-1.83a.923.923,0,0,1,1.166-.115,29.077,29.077,0,0,0,45.211-24.2ZM12.221,48.849A3.3,3.3,0,0,1,7.4,47.22,30.931,30.931,0,0,1,52.955,10.147L54.206,8.9a1.926,1.926,0,0,1,3.224.866l2.564,9.617a1.916,1.916,0,0,1-2.347,2.343l-9.607-2.577a1.927,1.927,0,0,1-.864-3.223l.974-.974A24.346,24.346,0,0,0,13.536,44.8a3.34,3.34,0,0,1-1.315,4.046Zm-.413-3.393A26.183,26.183,0,0,1,50.12,13.968a.935.935,0,0,1,.167,1.455l-1.806,1.8c-.153.153-.309.041,9.644,2.708a.06.06,0,0,0,.066-.017c.053-.053.2.6-2.547-9.684-.053-.195-.226.056-1.91,1.741a.942.942,0,0,1-1.179.116A29.091,29.091,0,0,0,9.124,46.562a1.455,1.455,0,0,0,2.133.711,1.511,1.511,0,0,0,.551-1.817Z" transform="translate(25.63 27.72)"/>
    </g>
  </g>
</svg>
