<svg id="Group_1609" data-name="Group 1609" xmlns="http://www.w3.org/2000/svg" width="14.333" height="14.333" viewBox="0 0 14.333 14.333">
  <defs>
    <style>
      .cls-1 {
        fill: #767676;
      }
    </style>
  </defs>
  <path id="Path_6281" data-name="Path 6281" class="cls-1" d="M28.253,40.429a.46.46,0,0,1-.25-.848,3.709,3.709,0,0,0,1.083-1.1,1.168,1.168,0,0,0,.271-.969c-.173-.489-1.1-.843-1.894-1.1a1.988,1.988,0,0,0-2.022.489l-.3.3a.461.461,0,0,1-.192.115c-.206.061-1.334.265-3.424-1.825a.461.461,0,0,1,.651-.652c1.371,1.371,2.173,1.564,2.437,1.587l.177-.177a2.91,2.91,0,0,1,2.954-.715c1.033.331,2.161.759,2.482,1.666a2,2,0,0,1-.368,1.781A4.635,4.635,0,0,1,28.5,40.356.46.46,0,0,1,28.253,40.429Zm-2.212.618c-2.108,0-4.528-1.219-6.687-3.378A.46.46,0,1,1,20,37.017c2.038,2.038,4.381,3.2,6.259,3.1a.454.454,0,0,1,.483.437.46.46,0,0,1-.437.483C26.221,41.044,26.131,41.046,26.041,41.046Z" transform="translate(-15.976 -26.713)"/>
  <path id="Path_6282" data-name="Path 6282" class="cls-1" d="M12.358,19.747a.459.459,0,0,1-.325-.135C9.71,17.289,8.456,14.592,8.681,12.4a4.369,4.369,0,0,1,2.031-3.288,2,2,0,0,1,1.781-.368c.907.32,1.336,1.449,1.666,2.482a2.907,2.907,0,0,1-.715,2.954l-.181.182c.022.237.2,1.044,1.591,2.433a.46.46,0,1,1-.651.651c-2.09-2.09-1.887-3.219-1.825-3.424a.456.456,0,0,1,.115-.192l.3-.3a1.99,1.99,0,0,0,.489-2.022c-.253-.791-.607-1.722-1.1-1.895a1.169,1.169,0,0,0-.969.27A3.432,3.432,0,0,0,9.6,12.491c-.2,1.922.957,4.34,3.087,6.47a.46.46,0,0,1-.326.786Z" transform="translate(-8.655 -8.657)"/>
</svg>
