<svg xmlns="http://www.w3.org/2000/svg" width="14.377" height="14.379" viewBox="0 0 14.377 14.379">
  <defs>
    <style>
      .cls-1 {
        fill: #fb6f7e;
      }
    </style>
  </defs>
  <path id="paper-plane" class="cls-1" d="M13.852.529A1.777,1.777,0,0,0,12.175.049L2.589,2.068A2.993,2.993,0,0,0,.879,7.15L1.909,8.178a.6.6,0,0,1,.176.424v1.9a1.776,1.776,0,0,0,.18.77l0,0,.016.016a1.8,1.8,0,0,0,.816.812l.016.016,0,0a1.776,1.776,0,0,0,.77.18h1.9a.6.6,0,0,1,.424.175L7.231,13.5a2.973,2.973,0,0,0,2.109.883,3.025,3.025,0,0,0,.962-.158,2.955,2.955,0,0,0,2-2.388l2.022-9.607a1.782,1.782,0,0,0-.475-1.7Zm-11.1,6.8L1.727,6.3a1.761,1.761,0,0,1-.433-1.842,1.784,1.784,0,0,1,1.5-1.214l9.491-2-9,9V8.6A1.784,1.784,0,0,0,2.757,7.332Zm8.37,4.3a1.8,1.8,0,0,1-3.049,1.026l-1.03-1.03a1.784,1.784,0,0,0-1.27-.526H4.128l9-9Z" transform="translate(-0.003 -0.001)"/>
</svg>
