<svg xmlns="http://www.w3.org/2000/svg" xmlns:xlink="http://www.w3.org/1999/xlink" width="144" height="114" viewBox="0 0 144 114">
  <defs>
    <style>
      .cls-1 {
        fill: url(#linear-gradient);
      }

      .cls-2 {
        filter: url(#Path_6259);
      }

      .cls-3 {
        filter: url(#Path_6258);
      }

      .cls-4 {
        filter: url(#Path_6257);
      }

      .cls-5 {
        filter: url(#Path_6256);
      }

      .cls-6 {
        filter: url(#Path_6255);
      }

      .cls-7 {
        filter: url(#Path_6254);
      }

      .cls-8 {
        filter: url(#Path_6253);
      }

      .cls-9 {
        filter: url(#Path_6252);
      }
    </style>
    <linearGradient id="linear-gradient" x1="0.5" y1="-0.549" x2="0.5" y2="1" gradientUnits="objectBoundingBox">
      <stop offset="0" stop-color="#ffaf60"/>
      <stop offset="0.278" stop-color="#f39171"/>
      <stop offset="1" stop-color="#de5b8f"/>
    </linearGradient>
    <filter id="Path_6252" x="12" y="33" width="81" height="75" filterUnits="userSpaceOnUse">
      <feOffset dx="5" dy="3" input="SourceAlpha"/>
      <feGaussianBlur stdDeviation="12" result="blur"/>
      <feFlood flood-opacity="0.09"/>
      <feComposite operator="in" in2="blur"/>
      <feComposite in="SourceGraphic"/>
    </filter>
    <filter id="Path_6253" x="40.498" y="9" width="103.502" height="99" filterUnits="userSpaceOnUse">
      <feOffset dx="5" dy="3" input="SourceAlpha"/>
      <feGaussianBlur stdDeviation="12" result="blur-2"/>
      <feFlood flood-opacity="0.09"/>
      <feComposite operator="in" in2="blur-2"/>
      <feComposite in="SourceGraphic"/>
    </filter>
    <filter id="Path_6254" x="51" y="27" width="87" height="87" filterUnits="userSpaceOnUse">
      <feOffset dx="5" dy="3" input="SourceAlpha"/>
      <feGaussianBlur stdDeviation="12" result="blur-3"/>
      <feFlood flood-opacity="0.09"/>
      <feComposite operator="in" in2="blur-3"/>
      <feComposite in="SourceGraphic"/>
    </filter>
    <filter id="Path_6255" x="18" y="27" width="87" height="87" filterUnits="userSpaceOnUse">
      <feOffset dx="5" dy="3" input="SourceAlpha"/>
      <feGaussianBlur stdDeviation="12" result="blur-4"/>
      <feFlood flood-opacity="0.09"/>
      <feComposite operator="in" in2="blur-4"/>
      <feComposite in="SourceGraphic"/>
    </filter>
    <filter id="Path_6256" x="6" y="6" width="87" height="75" filterUnits="userSpaceOnUse">
      <feOffset dx="5" dy="3" input="SourceAlpha"/>
      <feGaussianBlur stdDeviation="12" result="blur-5"/>
      <feFlood flood-opacity="0.09"/>
      <feComposite operator="in" in2="blur-5"/>
      <feComposite in="SourceGraphic"/>
    </filter>
    <filter id="Path_6257" x="3" y="15" width="90" height="75" filterUnits="userSpaceOnUse">
      <feOffset dx="5" dy="3" input="SourceAlpha"/>
      <feGaussianBlur stdDeviation="12" result="blur-6"/>
      <feFlood flood-opacity="0.09"/>
      <feComposite operator="in" in2="blur-6"/>
      <feComposite in="SourceGraphic"/>
    </filter>
    <filter id="Path_6258" x="0" y="24" width="93" height="75" filterUnits="userSpaceOnUse">
      <feOffset dx="5" dy="3" input="SourceAlpha"/>
      <feGaussianBlur stdDeviation="12" result="blur-7"/>
      <feFlood flood-opacity="0.09"/>
      <feComposite operator="in" in2="blur-7"/>
      <feComposite in="SourceGraphic"/>
    </filter>
    <filter id="Path_6259" x="12" y="0" width="111.002" height="108" filterUnits="userSpaceOnUse">
      <feOffset dx="5" dy="3" input="SourceAlpha"/>
      <feGaussianBlur stdDeviation="12" result="blur-8"/>
      <feFlood flood-opacity="0.09"/>
      <feComposite operator="in" in2="blur-8"/>
      <feComposite in="SourceGraphic"/>
    </filter>
  </defs>
  <g id="shipping" transform="translate(31 26)">
    <g class="cls-9" transform="matrix(1, 0, 0, 1, -31, -26)">
      <path id="Path_6252-2" data-name="Path 6252" class="cls-1" d="M11.5,21h-6a1.5,1.5,0,1,1,0-3h6a1.5,1.5,0,1,1,0,3Z" transform="translate(39 48)"/>
    </g>
    <g class="cls-8" transform="matrix(1, 0, 0, 1, -31, -26)">
      <path id="Path_6253-2" data-name="Path 6253" class="cls-1" d="M41.251,37H37.5a1.5,1.5,0,0,1,0-3h2.5l2.022-10.776A10.5,10.5,0,0,0,31.5,13H21.652L16.879,34H25.5a1.5,1.5,0,1,1,0,3H15a1.5,1.5,0,0,1-1.464-1.83l5.454-24A1.5,1.5,0,0,1,20.455,10H31.5A13.516,13.516,0,0,1,45,23.5L42.724,35.776A1.5,1.5,0,0,1,41.251,37Z" transform="translate(58 32)"/>
    </g>
    <g class="cls-7" transform="matrix(1, 0, 0, 1, -31, -26)">
      <path id="Path_6254-2" data-name="Path 6254" class="cls-1" d="M24.5,31A7.5,7.5,0,1,1,32,23.5,7.509,7.509,0,0,1,24.5,31Zm0-12A4.5,4.5,0,1,0,29,23.5,4.505,4.505,0,0,0,24.5,19Z" transform="translate(65 44)"/>
    </g>
    <g class="cls-6" transform="matrix(1, 0, 0, 1, -31, -26)">
      <path id="Path_6255-2" data-name="Path 6255" class="cls-1" d="M13.5,31A7.5,7.5,0,1,1,21,23.5,7.509,7.509,0,0,1,13.5,31Zm0-12A4.5,4.5,0,1,0,18,23.5,4.505,4.505,0,0,0,13.5,19Z" transform="translate(43 44)"/>
    </g>
    <g class="cls-5" transform="matrix(1, 0, 0, 1, -31, -26)">
      <path id="Path_6256-2" data-name="Path 6256" class="cls-1" d="M15.5,12H3.5a1.5,1.5,0,1,1,0-3h12a1.5,1.5,0,0,1,0,3Z" transform="translate(35 30)"/>
    </g>
    <g class="cls-4" transform="matrix(1, 0, 0, 1, -31, -26)">
      <path id="Path_6257-2" data-name="Path 6257" class="cls-1" d="M17.5,15H2.5a1.5,1.5,0,1,1,0-3h15a1.5,1.5,0,1,1,0,3Z" transform="translate(33 36)"/>
    </g>
    <g class="cls-3" transform="matrix(1, 0, 0, 1, -31, -26)">
      <path id="Path_6258-2" data-name="Path 6258" class="cls-1" d="M19.5,18H1.5a1.5,1.5,0,0,1,0-3h18a1.5,1.5,0,1,1,0,3Z" transform="translate(31 42)"/>
    </g>
    <g class="cls-2" transform="matrix(1, 0, 0, 1, -31, -26)">
      <path id="Path_6259-2" data-name="Path 6259" class="cls-1" d="M34,43H23.5a1.5,1.5,0,0,1,0-3h9.3l6.816-30H5.5a1.5,1.5,0,1,1,0-3h36a1.5,1.5,0,0,1,1.464,1.83l-7.5,33A1.5,1.5,0,0,1,34,43Z" transform="translate(39 26)"/>
    </g>
  </g>
</svg>
