<svg xmlns="http://www.w3.org/2000/svg" width="184" height="101.519" viewBox="0 0 184 101.519">
  <defs>
    <style>
      .cls-1 {
        fill: #eb5463;
      }

      .cls-2 {
        fill: #f76c82;
      }

      .cls-3 {
        fill: #d94452;
      }
    </style>
  </defs>
  <g id="banner" transform="translate(-1 -13)">
    <path id="Path_6425" data-name="Path 6425" class="cls-1" d="M184.9,112.425a1.586,1.586,0,0,1-1.491,2.094H134.235a9.5,9.5,0,0,1-6.726-2.792,9.609,9.609,0,0,1-2.759-7.106c0,.127-.032.254-.032.381V76.449H61.269V105c0-.127-.032-.254-.032-.381a9.609,9.609,0,0,1-2.76,7.106,9.5,9.5,0,0,1-6.726,2.792H2.578a1.586,1.586,0,0,1-1.491-2.094L9.716,86.474a1.4,1.4,0,0,0,0-1.015L1.087,59.508a1.586,1.586,0,0,1,1.491-2.094H26.372v-34.9A9.517,9.517,0,0,1,35.889,13H150.1a9.517,9.517,0,0,1,9.517,9.517v34.9h23.793a1.586,1.586,0,0,1,1.491,2.094L176.27,85.459a1.4,1.4,0,0,0,0,1.015Z" transform="translate(0.007 0)"/>
    <path id="Path_6426" data-name="Path 6426" class="cls-2" d="M61.25,73.889A9.517,9.517,0,0,1,51.758,84.1H2.585a1.586,1.586,0,0,1-1.5-2.087L9.736,56.053a1.586,1.586,0,0,0,0-1L1.082,29.087A1.586,1.586,0,0,1,2.585,27H26.379V55.552A9.517,9.517,0,0,0,35.9,65.069H51.222A9.885,9.885,0,0,1,61.25,73.889Z" transform="translate(0 30.414)"/>
    <path id="Path_6427" data-name="Path 6427" class="cls-3" d="M43.9,33V61.552a9.517,9.517,0,0,0-9.517-9.517H18.517a9.517,9.517,0,0,1,0-19.035Z" transform="translate(17.379 43.449)"/>
    <path id="Path_6428" data-name="Path 6428" class="cls-3" d="M74.9,42.517a9.517,9.517,0,0,1-9.517,9.517H49.517A9.517,9.517,0,0,0,40,61.552V33H65.38A9.517,9.517,0,0,1,74.9,42.517Z" transform="translate(84.725 43.449)"/>
    <g id="Group_1813" data-name="Group 1813" transform="translate(35.896 22.517)">
      <path id="Path_6429" data-name="Path 6429" class="cls-2" d="M91.54,56.053l8.654,25.963a1.586,1.586,0,0,1-1.5,2.087H49.518a9.517,9.517,0,0,1-9.492-10.215,9.885,9.885,0,0,1,10.028-8.819H65.38A9.517,9.517,0,0,0,74.9,55.552V27H98.691a1.586,1.586,0,0,1,1.5,2.087L91.54,55.051a1.586,1.586,0,0,0,0,1Z" transform="translate(48.829 7.897)"/>
      <path id="Path_6430" data-name="Path 6430" class="cls-2" d="M55.069,22.345h-34.9a3.172,3.172,0,0,1,0-6.345h34.9a3.172,3.172,0,1,1,0,6.345Z" transform="translate(-1.138 -16)"/>
      <path id="Path_6431" data-name="Path 6431" class="cls-2" d="M18.345,22.345H15.172a3.172,3.172,0,0,1,0-6.345h3.172a3.172,3.172,0,1,1,0,6.345Z" transform="translate(-12 -16)"/>
    </g>
  </g>
</svg>
