<svg id="accessories" xmlns="http://www.w3.org/2000/svg" width="60" height="60" viewBox="0 0 60 60">
  <defs>
    <style>
      .cls-1 {
        fill: #383838;
      }

      .cls-2 {
        fill: #212121;
      }

      .cls-3 {
        fill: #4c4c4c;
      }

      .cls-4 {
        fill: #5b5b5b;
      }

      .cls-5 {
        fill: #c1cfe8;
      }

      .cls-6 {
        fill: #e73844;
      }

      .cls-7 {
        fill: #ff4d55;
      }
    </style>
  </defs>
  <path id="Path_6310" data-name="Path 6310" class="cls-1" d="M41,55v4c0,1.657,4.477,3,10,3s10-1.343,10-3V55" transform="translate(-2 -2)"/>
  <path id="Path_6311" data-name="Path 6311" class="cls-2" d="M48,44v9a3.415,3.415,0,0,0,2.414,1h1.172A3.415,3.415,0,0,0,54,53V44Z" transform="translate(-2 -2)"/>
  <path id="Path_6312" data-name="Path 6312" class="cls-1" d="M49.293,45.293l-8.586-8.586a2.414,2.414,0,0,1,0-3.414l8.586-8.586a2.414,2.414,0,0,1,3.414,0l8.586,8.586a2.414,2.414,0,0,1,0,3.414l-8.586,8.586a2.414,2.414,0,0,1-3.414,0Z" transform="translate(-2 -2)"/>
  <path id="Path_6313" data-name="Path 6313" class="cls-3" d="M52.86,24.707a2.346,2.346,0,0,0-3.357,0l-8.441,8.586a2.4,2.4,0,0,0-.474.707,2.4,2.4,0,0,0,.474.707L49.5,43.293a2.346,2.346,0,0,0,3.357,0L61.3,34.707A2.421,2.421,0,0,0,61.776,34a2.421,2.421,0,0,0-.475-.707Z" transform="translate(-2 -2)"/>
  <path id="Path_6314" data-name="Path 6314" class="cls-1" d="M10,55v4c0,1.657,5.82,3,13,3s13-1.343,13-3V55" transform="translate(-2 -2)"/>
  <path id="Path_6315" data-name="Path 6315" class="cls-4" d="M20,52.08c-5.733.313-10,1.5-10,2.92,0,1.657,5.82,3,13,3s13-1.343,13-3c0-1.419-4.267-2.607-10-2.92" transform="translate(-2 -2)"/>
  <path id="Path_6316" data-name="Path 6316" class="cls-2" d="M20,44.761V53a3.415,3.415,0,0,0,2.414,1h1.172A3.415,3.415,0,0,0,26,53V44.761Z" transform="translate(-2 -2)"/>
  <path id="Path_6317" data-name="Path 6317" class="cls-1" d="M34,7a16.549,16.549,0,0,0,8.512,10.256L44,18l-.775,4.265A31.063,31.063,0,0,1,23,46,31.055,31.055,0,0,1,2.777,22.276L2,18l1.488-.744A16.549,16.549,0,0,0,12,7" transform="translate(-2 -2)"/>
  <path id="Path_6318" data-name="Path 6318" class="cls-3" d="M34,7H12a16.538,16.538,0,0,1-5.128,7.979A37.055,37.055,0,0,0,30.779,41.924,31.048,31.048,0,0,0,43.225,22.265L44,18l-1.488-.744A16.549,16.549,0,0,1,34,7Z" transform="translate(-2 -2)"/>
  <ellipse id="Ellipse_33" data-name="Ellipse 33" class="cls-4" cx="11" cy="5" rx="11" ry="5" transform="translate(10)"/>
  <path id="Path_6319" data-name="Path 6319" class="cls-4" d="M48.026,52.135C43.956,52.515,41,53.654,41,55c0,1.657,4.477,3,10,3s10-1.343,10-3c0-1.343-2.943-2.48-7-2.863" transform="translate(-2 -2)"/>
  <g id="Group_1721" data-name="Group 1721" transform="translate(4.419 11.891)">
    <path id="Path_6320" data-name="Path 6320" class="cls-5" d="M47,30h2v5H47Z" transform="translate(-6.419 -13.891)"/>
    <path id="Path_6321" data-name="Path 6321" class="cls-5" d="M53,30h2v4.832H53Z" transform="translate(-6.419 -13.891)"/>
    <path id="Path_6322" data-name="Path 6322" class="cls-5" d="M39.579,15.377a16.463,16.463,0,0,1-1.6-1.481l-.159.471a17.273,17.273,0,0,1-4.54,7.043l-2.769,2.1a17.239,17.239,0,0,1-4.278,1.89L23,25.984l-3.141-.561a17.31,17.31,0,0,1-4.29-1.854l-2.774-2.1a17.3,17.3,0,0,1-4.616-7.1l-.16-.478a16.485,16.485,0,0,1-1.6,1.482A19.347,19.347,0,0,0,11.512,23l2.93,2.214a19.272,19.272,0,0,0,4.971,2.152l3.41.614a.987.987,0,0,0,.354,0l3.5-.635a19.255,19.255,0,0,0,4.958-2.186l2.925-2.222a19.313,19.313,0,0,0,5.019-7.56Z" transform="translate(-6.419 -13.891)"/>
  </g>
  <ellipse id="Ellipse_34" data-name="Ellipse 34" class="cls-6" cx="4" cy="5" rx="4" ry="5" transform="translate(17 22)"/>
  <path id="Path_6323" data-name="Path 6323" class="cls-7" d="M23,24a3.38,3.38,0,0,0-1.963.668A5.7,5.7,0,0,0,20,28c0,2.761,1.791,5,4,5a3.38,3.38,0,0,0,1.963-.668A5.7,5.7,0,0,0,27,29C27,26.239,25.209,24,23,24Z" transform="translate(-2 -2)"/>
  <circle id="Ellipse_35" data-name="Ellipse 35" class="cls-7" cx="2" cy="2" r="2" transform="translate(29.016 19.984)"/>
  <circle id="Ellipse_36" data-name="Ellipse 36" class="cls-7" cx="2" cy="2" r="2" transform="translate(9.016 19.984)"/>
  <path id="Path_6324" data-name="Path 6324" class="cls-1" d="M22.981,47.011a31.134,31.134,0,0,1-3-1.254v7.257a3.415,3.415,0,0,0,2.414,1h1.172a3.415,3.415,0,0,0,2.414-1V45.756a30.887,30.887,0,0,1-3,1.257Z" transform="translate(-2 -2)"/>
  <path id="Path_6325" data-name="Path 6325" class="cls-1" d="M51,47a2.414,2.414,0,0,1-1.707-.707L48,45v8a3.415,3.415,0,0,0,2.414,1h1.172A3.415,3.415,0,0,0,54,53V45l-1.293,1.293A2.414,2.414,0,0,1,51,47Z" transform="translate(-2 -2)"/>
  <ellipse id="Ellipse_37" data-name="Ellipse 37" class="cls-6" cx="2" cy="3" rx="2" ry="3" transform="translate(44 32)"/>
  <path id="Path_6326" data-name="Path 6326" class="cls-7" d="M48,34a1.384,1.384,0,0,0-.553.131A3.979,3.979,0,0,0,47,36c0,1.657.9,3,2,3a1.384,1.384,0,0,0,.553-.131A3.979,3.979,0,0,0,50,37C50,35.343,49.1,34,48,34Z" transform="translate(-2 -2)"/>
  <ellipse id="Ellipse_38" data-name="Ellipse 38" class="cls-6" cx="2" cy="3" rx="2" ry="3" transform="translate(50 32)"/>
  <path id="Path_6327" data-name="Path 6327" class="cls-7" d="M54,34a1.384,1.384,0,0,0-.553.131A3.979,3.979,0,0,0,53,36c0,1.657.9,3,2,3a1.384,1.384,0,0,0,.553-.131A3.979,3.979,0,0,0,56,37C56,35.343,55.1,34,54,34Z" transform="translate(-2 -2)"/>
</svg>
