<svg id="bag" xmlns="http://www.w3.org/2000/svg" width="60.635" height="69.138" viewBox="0 0 60.635 69.138">
  <defs>
    <style>
      .cls-1 {
        fill: #f6ee86;
      }

      .cls-2 {
        fill: #e26e7e;
      }

      .cls-3 {
        fill: #d9495d;
      }

      .cls-4 {
        fill: #e1ac9a;
      }
    </style>
  </defs>
  <g id="Group_1727" data-name="Group 1727">
    <path id="Path_6340" data-name="Path 6340" class="cls-1" d="M130.666,79.156a2.9,2.9,0,0,1-2.9-2.9V72.684a17.316,17.316,0,0,1,2.318-8.66,2.9,2.9,0,0,1,5.016,2.9,11.512,11.512,0,0,0-1.54,5.758v3.575a2.9,2.9,0,0,1-2.9,2.9Z" transform="translate(-114.767 -54.127)"/>
    <path id="Path_6341" data-name="Path 6341" class="cls-1" d="M331.854,79.156a2.9,2.9,0,0,0,2.9-2.9V72.684a17.316,17.316,0,0,0-2.318-8.66,2.9,2.9,0,0,0-5.016,2.9,11.512,11.512,0,0,1,1.54,5.758v3.575a2.9,2.9,0,0,0,2.9,2.9Z" transform="translate(-287.119 -54.127)"/>
    <path id="Path_6342" data-name="Path 6342" class="cls-2" d="M85.8,237.449c2.582,9.038,10.305,27.737,3.744,32.169-7.263,4.905-23.2,4.905-27.739,4.905s-20.476,0-27.739-4.905c-6.561-4.431,1.162-23.131,3.744-32.169Z" transform="translate(-31.486 -205.385)"/>
    <path id="Path_6343" data-name="Path 6343" class="cls-3" d="M85.8,237.449H37.809c-2.582,9.038-10.305,27.738-3.744,32.169,3.669,2.478,9.551,3.7,15.059,4.311-3.568-3.076-4.831-9.381-4.6-15.358,4.624,2.152,10.4,3.24,17.276,3.24,11.239,0,19.54-2.9,24.672-8.616a20.176,20.176,0,0,0,2.934-4.252c-1.293-4.317-2.743-8.452-3.612-11.493Z" transform="translate(-31.486 -205.385)"/>
    <path id="Path_6344" data-name="Path 6344" class="cls-2" d="M112.58,204.5a3.64,3.64,0,0,1,3.622,3.241c.928,8.588-2.833,21.4-25.712,21.4s-26.641-12.807-25.712-21.4A3.639,3.639,0,0,1,68.4,204.5Z" transform="translate(-60.173 -176.887)"/>
    <path id="Path_6345" data-name="Path 6345" class="cls-3" d="M193.083,303.309H175.89a2.568,2.568,0,0,0-2.568,2.568v.895a2.568,2.568,0,0,0,2.568,2.568h17.193a2.568,2.568,0,0,0,2.568-2.568v-.895A2.568,2.568,0,0,0,193.083,303.309Z" transform="translate(-154.169 -262.352)"/>
    <path id="Path_6346" data-name="Path 6346" class="cls-1" d="M232.9,260.631v13.478a2.358,2.358,0,0,0,2.358,2.358h1.524a2.358,2.358,0,0,0,2.358-2.358V260.631a2.358,2.358,0,0,0-2.358-2.358h-1.524a2.358,2.358,0,0,0-2.358,2.358Z" transform="translate(-205.699 -223.397)"/>
    <path id="Path_6347" data-name="Path 6347" class="cls-3" d="M118.125,163.9h-6.053a2.3,2.3,0,0,0-2.3,2.3v3.181h10.655V166.2A2.3,2.3,0,0,0,118.125,163.9Z" transform="translate(-99.2 -141.767)"/>
    <path id="Path_6348" data-name="Path 6348" class="cls-3" d="M325.621,163.9h6.053a2.3,2.3,0,0,1,2.3,2.3v3.181H323.32V166.2A2.3,2.3,0,0,1,325.621,163.9Z" transform="translate(-283.912 -141.767)"/>
    <path id="Path_6349" data-name="Path 6349" class="cls-4" d="M161.975,15.488a4.137,4.137,0,0,1-3.587-2.067,10.284,10.284,0,0,0-17.812,0,4.139,4.139,0,1,1-7.166-4.145,18.562,18.562,0,0,1,32.144,0,4.14,4.14,0,0,1-3.579,6.213Z" transform="translate(-119.165)"/>
  </g>
</svg>
