<svg xmlns="http://www.w3.org/2000/svg" width="48.309" height="61.531" viewBox="0 0 48.309 61.531">
  <defs>
    <style>
      .cls-1 {
        fill: #b5d5f5;
      }

      .cls-2 {
        fill: #cbe3fa;
      }

      .cls-3 {
        fill: #eef7ff;
      }
    </style>
  </defs>
  <g id="wedding_dress_3_" data-name="wedding dress (3)" transform="translate(-50.712)">
    <path id="Path_6227" data-name="Path 6227" class="cls-1" d="M179.042,11.1A1.043,1.043,0,0,1,178,10.055V1.043a1.043,1.043,0,1,1,2.086,0v9.012A1.043,1.043,0,0,1,179.042,11.1Z" transform="translate(-110.693)"/>
    <path id="Path_6228" data-name="Path 6228" class="cls-1" d="M279.042,11.1A1.043,1.043,0,0,1,278,10.055V1.043a1.043,1.043,0,0,1,2.086,0v9.012A1.043,1.043,0,0,1,279.042,11.1Z" transform="translate(-197.657)"/>
    <path id="Path_6229" data-name="Path 6229" class="cls-2" d="M98.075,99.045a9.974,9.974,0,0,1-5.035,1.845c.07.1.143.21.216.315a2.165,2.165,0,0,1-.635,3.071A12.811,12.811,0,0,1,83.391,106a2.149,2.149,0,0,1-1.281,1.839,18.074,18.074,0,0,1-14.473.005A2.155,2.155,0,0,1,66.346,106a12.8,12.8,0,0,1-9.231-1.723,2.166,2.166,0,0,1-.635-3.071c.073-.106.145-.211.215-.315a10.019,10.019,0,0,1-5.035-1.845,2.161,2.161,0,0,1-.695-2.805c2.2-4.178,2.918-12.19,4.388-15.782.949-2.32,3.144-7.2,10.529-9.371.326-.1.661-.188,1.006-.272,2.5-3.027-6.407-10.122-.027-15,2.18-1.668,5.591-.49,8.006.807,2.416-1.3,5.826-2.474,8.006-.807,6.379,4.879-2.526,11.974-.027,15,.345.085.68.175,1.006.272,7.385,2.171,9.58,7.05,10.529,9.371,1.471,3.592,2.193,11.6,4.388,15.782A2.161,2.161,0,0,1,98.075,99.045Z" transform="translate(-0.001 -47.823)"/>
    <path id="Path_6230" data-name="Path 6230" class="cls-3" d="M51.668,99.051a2.16,2.16,0,0,1-.7-2.811c2.2-4.178,2.918-12.19,4.388-15.782.991-2.422,3.34-7.634,11.536-9.643,2.5-3.026-6.407-10.121-.027-15,2.18-1.668,5.591-.49,8.006.807,2.445-1.314,5.842-2.478,8.036-.783a1.11,1.11,0,0,1-.463,1.959,13.936,13.936,0,0,0-3.165,1.171,1.114,1.114,0,0,1-1,0c-2.368-1.183-5.47-2.1-7.5-.546-6.38,4.88,2.528,11.975.027,15-8.2,2.009-11.767,6.329-12.758,8.751-1.429,3.49-2.01,11.858-4.056,16.162A1.652,1.652,0,0,1,51.668,99.051Z" transform="translate(0 -47.823)"/>
    <g id="Group_1553" data-name="Group 1553" transform="translate(55.112 22.275)">
      <path id="Path_6231" data-name="Path 6231" class="cls-1" d="M92.482,246.687c-3.751,4.96-1.035,11.384-6.437,19.458a5.115,5.115,0,0,1-.69-.053,1.042,1.042,0,0,1-.729-1.592c4.689-7.418,2.033-13.6,6.2-19.079a1.044,1.044,0,0,1,1.66,1.266Z" transform="translate(-84.462 -235.353)"/>
      <path id="Path_6232" data-name="Path 6232" class="cls-1" d="M324.641,246.687c3.751,4.96,1.035,11.384,6.437,19.458a5.115,5.115,0,0,0,.69-.053,1.042,1.042,0,0,0,.729-1.592c-4.689-7.418-2.033-13.6-6.2-19.079a1.044,1.044,0,0,0-1.659,1.266Z" transform="translate(-293.15 -235.353)"/>
      <path id="Path_6233" data-name="Path 6233" class="cls-1" d="M269.978,288.7a1.046,1.046,0,0,1-1.167,1.026q-.48-.054-.961-.141,0-.074,0-.149c-.039-6.522-2-10.554-3.023-13.384a37.366,37.366,0,0,1-2-8.8,1.043,1.043,0,1,1,2.074-.222,35.736,35.736,0,0,0,1.888,8.308C267.117,276.235,270.041,283.01,269.978,288.7Z" transform="translate(-239.572 -253.679)"/>
      <path id="Path_6234" data-name="Path 6234" class="cls-1" d="M161.361,267.249c-.971,8.966-3.511,10.515-4.628,17.43a30.337,30.337,0,0,0-.391,4.9c-.031,0-.4.08-.986.144a1.043,1.043,0,0,1-1.154-1.018c-.1-5.6,3.039-12.935,3.2-13.37a35.763,35.763,0,0,0,1.888-8.309,1.043,1.043,0,1,1,2.074.222Z" transform="translate(-145.109 -253.677)"/>
      <path id="Path_6235" data-name="Path 6235" class="cls-1" d="M186.046,171.7a.411.411,0,0,1,.141.727,14.733,14.733,0,0,1-17.174,0,.411.411,0,0,1,.141-.727q.231-.062.468-.12a1.913,1.913,0,0,0,.282-.458.415.415,0,0,1,.609-.192,12.621,12.621,0,0,0,14.174,0,.415.415,0,0,1,.61.192,1.917,1.917,0,0,0,.282.457Q185.816,171.642,186.046,171.7Z" transform="translate(-157.845 -170.866)"/>
    </g>
    <path id="Path_6236" data-name="Path 6236" class="cls-3" d="M176.557,287.963a31.433,31.433,0,0,0-1.019,12.1,1.042,1.042,0,0,1-1.315,1.11,18.225,18.225,0,0,1-2.352-.837,2.155,2.155,0,0,1-1.291-1.845,30.328,30.328,0,0,1,.391-4.9c1.036-6.411,3.384-8.433,4.42-15.723a1.76,1.76,0,0,1,3.084-.9c1.858,2.2-.605,6.56-1.918,11Z" transform="translate(-104.234 -240.312)"/>
    <path id="Path_6237" data-name="Path 6237" class="cls-3" d="M101.246,257.7c-1.962,3.807-.7,7.136-3.019,13.336-1.135,3.039-2.27,3.749-3.381,6.726a1.24,1.24,0,0,1-1.836.615,2.162,2.162,0,0,1-1.021-1.842,2.494,2.494,0,0,1,.6-1.545c5.418-8.064,2.685-14.5,6.437-19.458C99.452,255.143,102.916,254.462,101.246,257.7Z" transform="translate(-35.896 -221.926)"/>
  </g>
</svg>
